<svg xmlns="http://www.w3.org/2000/svg" xmlns:xlink="http://www.w3.org/1999/xlink" width="36" height="36" viewBox="0 0 36 36">
  <defs>
    <linearGradient id="linear-gradient" x1="0.199" y1="0.073" x2="0.792" y2="0.914" gradientUnits="objectBoundingBox">
      <stop offset="0" stop-color="#ff9100"/>
      <stop offset="1" stop-color="#fc0"/>
    </linearGradient>
  </defs>
  <g id="AminToken_Logo-01" data-name="AminToken Logo-01" transform="translate(-21.639 -21.639)">
    <circle id="Ellipse_25" data-name="Ellipse 25" cx="15.004" cy="15.004" r="15.004" transform="translate(24.635 24.635)" fill="url(#linear-gradient)"/>
    <circle id="Ellipse_26" data-name="Ellipse 26" cx="17.419" cy="17.419" r="17.419" transform="translate(22.219 22.219)" fill="none" stroke="#ffb800" stroke-linecap="round" stroke-linejoin="round" stroke-miterlimit="10" stroke-width="1.161"/>
    <path id="Path_355" data-name="Path 355" d="M44.33,36.6V33.724a3.91,3.91,0,0,0-5.644-3.507l-5.969,2.942a.008.008,0,0,0-.008.008l-.046.023c-.008.008-.015.008-.015.015a.008.008,0,0,0-.008.008c-.015.015-.031.023-.046.039a.008.008,0,0,1-.008.008.205.205,0,0,0-.039.046c-.008.008-.008.015-.015.015a.136.136,0,0,1-.031.039c-.008.008-.008.015-.015.023l-.023.046c0,.008-.008.008-.008.015l-.023.07v.015c0,.015-.008.039-.008.054V45.3c0,.015.008.031.008.046a.028.028,0,0,0,.008.023l.023.07a.008.008,0,0,0,.008.008c.008.015.015.039.023.054s.008.015.015.023.015.023.023.039.015.015.015.023l.031.031.023.023c.008.008.023.015.039.031s.015.015.023.015l.008.008c.008.008.015.008.031.015s.023.008.031.015a.11.11,0,0,0,.046.015c.008,0,.015.008.023.008l8.919,2.694a4.018,4.018,0,0,0,1.161.17,3.995,3.995,0,0,0,3.972-3.987V40.746A4.69,4.69,0,0,0,44.33,36.6Zm-1.068.759c0,.031-.008.054-.008.085s-.008.039-.008.062-.008.054-.008.077-.008.039-.008.062-.008.046-.015.077a.182.182,0,0,1-.015.062c-.008.023-.008.046-.015.07s-.008.039-.015.062-.008.046-.015.07-.008.039-.015.062a.226.226,0,0,0-.015.07.182.182,0,0,0-.015.062l-.023.07c-.008.023-.015.039-.023.062l-.023.07c-.008.023-.015.039-.023.062l-.023.07c-.008.023-.015.039-.023.062s-.023.046-.031.07-.015.039-.023.054-.023.046-.031.07-.015.039-.023.054-.023.046-.039.07a.377.377,0,0,0-.023.054.362.362,0,0,0-.039.077l-.023.046c-.023.031-.039.07-.062.1,0,.008-.008.008-.008.015a1.008,1.008,0,0,1-.077.116c-.008.015-.015.023-.023.039s-.039.054-.054.077-.023.031-.031.046a.426.426,0,0,1-.054.07.205.205,0,0,1-.039.046.388.388,0,0,1-.054.062c-.015.015-.023.031-.039.046a.388.388,0,0,1-.054.062c-.015.015-.023.031-.039.046a.358.358,0,0,1-.054.054.205.205,0,0,0-.039.046l-.054.054-.046.046-.054.054a.205.205,0,0,1-.046.039.358.358,0,0,0-.054.054c-.015.015-.031.023-.046.039s-.039.031-.062.046-.031.023-.046.039-.039.031-.062.046-.031.023-.046.039a.43.43,0,0,0-.062.046c-.015.008-.031.023-.046.031l-.07.046c-.015.008-.031.023-.046.031l-.07.046a.162.162,0,0,0-.046.031c-.031.015-.054.031-.085.046-.015.008-.023.015-.039.023a.924.924,0,0,1-.124.062l-7.5,3.7V34.351l9.732,2.934a.144.144,0,0,0,.054.015v.008C43.262,37.316,43.262,37.339,43.262,37.355Zm-4.111-6.2a2.858,2.858,0,0,1,4.119,2.563v2.47L34.382,33.5Zm6.643,13.479a2.927,2.927,0,0,1-3.778,2.8l-7.634-2.307,7.061-3.484a5.085,5.085,0,0,0,2.1-1.9c.039-.07.077-.132.116-.2.008-.015.023-.039.031-.054l.093-.186c.008-.008.008-.015.015-.023l.093-.209c.008-.015.015-.039.023-.054.023-.062.046-.124.07-.178.008-.015.008-.023.015-.039.023-.07.054-.147.077-.217.008-.015.008-.039.015-.054.015-.062.039-.124.054-.178a.494.494,0,0,0,.015-.054c.015-.077.039-.147.054-.225,0-.015.008-.031.008-.046a1.551,1.551,0,0,0,.031-.186c0-.015.008-.023.008-.039a3.628,3.628,0,0,1,1.525,2.957v3.879Z" fill="#fff"/>
  </g>
</svg>
